<svg width="24" height="24" viewBox="0 0 24 24" fill="none" xmlns="http://www.w3.org/2000/svg">
<path d="M23.0084 17.7628L20.612 15.3665C20.1784 14.9331 19.6351 14.6254 19.0403 14.4765C18.4455 14.3275 17.8215 14.3428 17.2347 14.5206C16.6479 14.6985 16.1203 15.0323 15.7084 15.4864C15.2964 15.9406 15.0154 16.498 14.8953 17.0993C10.9437 16.3604 7.10034 12.5329 6.86112 9.1119C7.53292 8.98832 8.15119 8.66318 8.63371 8.1797C9.26902 7.54432 9.62593 6.6826 9.62593 5.7841C9.62593 4.88559 9.26902 4.02387 8.63371 3.38849L6.23804 0.9922C5.60264 0.356901 4.7409 0 3.84237 0C2.94384 0 2.0821 0.356901 1.44671 0.9922C-5.74098 8.1797 15.8207 29.7408 23.0084 22.5533C23.6433 21.9179 24 21.0564 24 20.1581C24 19.2598 23.6433 18.3983 23.0084 17.7628Z" fill="url(#paint0_linear_1_403)"/>
<defs>
<linearGradient id="paint0_linear_1_403" x1="8.37053" y1="17.8066" x2="15.6281" y2="11.2746" gradientUnits="userSpaceOnUse">
<stop stop-color="#FCB25F"/>
<stop offset="1" stop-color="#FDE7CE"/>
</linearGradient>
</defs>
</svg>
