<svg width="28" height="18" viewBox="0 0 28 18" fill="none" xmlns="http://www.w3.org/2000/svg">
<path d="M1.64192 1.929L12.6419 7.9725C13.0115 8.175 13.4896 8.271 13.9707 8.271C14.4518 8.271 14.9299 8.175 15.2995 7.9725L26.2995 1.929C27.0167 1.5345 27.6943 0 26.3787 0H1.56418C0.248585 0 0.926184 1.5345 1.64192 1.929ZM26.6325 5.2335L15.2995 11.274C14.8008 11.541 14.4518 11.5725 13.9707 11.5725C13.4896 11.5725 13.1406 11.541 12.6419 11.274C12.1433 11.007 2.18018 5.6655 1.36618 5.232C0.794185 4.926 0.800051 5.2845 0.800051 5.5605V16.5C0.800051 17.13 1.63018 18 2.26672 18H25.7334C26.3699 18 27.2 17.13 27.2 16.5V5.562C27.2 5.286 27.2059 4.9275 26.6325 5.2335Z" fill="url(#paint0_linear_1_396)"/>
<defs>
<linearGradient id="paint0_linear_1_396" x1="14" y1="0" x2="14" y2="18" gradientUnits="userSpaceOnUse">
<stop stop-color="#FCB25F"/>
<stop offset="1" stop-color="#FDE7CE"/>
</linearGradient>
</defs>
</svg>
