<svg width="18" height="18" viewBox="0 0 18 18" fill="none" xmlns="http://www.w3.org/2000/svg">
<g opacity="0.3">
<path d="M9 18C4.02944 18 0 13.9706 0 9C0 4.02944 4.02944 0 9 0C13.9706 0 18 4.02944 18 9C18 13.9706 13.9706 18 9 18Z" fill="#4F4F4F"/>
<path d="M9.00009 15.8852C5.19761 15.8852 2.11509 12.8027 2.11509 9.00024C2.11509 5.19775 5.19761 2.11523 9.00009 2.11523C12.8026 2.11523 15.8851 5.19775 15.8851 9.00024C15.8851 12.8027 12.8026 15.8852 9.00009 15.8852Z" fill="#4F4F4F"/>
<path d="M2.28761 10.5382C2.41811 11.1124 2.62107 11.6596 2.88611 12.169L9.58886 5.4658C9.75311 5.31505 9.83545 5.13955 9.83545 4.93839C9.83545 4.72868 9.75311 4.55047 9.58886 4.40422C9.42461 4.25843 9.22841 4.18506 8.99982 4.18506C8.77166 4.18506 8.57503 4.25839 8.41078 4.40422L2.28761 10.5382Z" fill="#4F4F4F"/>
<path d="M3.20966 12.7267C4.16725 14.2108 5.6797 15.3034 7.45408 15.7107C8.17949 14.9871 9.50203 13.6677 9.50653 13.6641C9.64378 13.5638 9.7122 13.4539 9.7122 13.3351V7.78753C9.7122 7.65028 9.64603 7.53869 9.51374 7.45182C9.38145 7.36498 9.20999 7.32178 8.99983 7.32178C8.78966 7.32178 8.61641 7.36498 8.47916 7.45182L3.20966 12.7267Z" fill="#4F4F4F"/>
<path d="M9.83562 4.93846C9.83562 4.72854 9.75346 4.55037 9.5891 4.40422C9.42475 4.25829 9.22847 4.18506 9.00006 4.18506C8.77189 4.18506 8.57537 4.25825 8.41101 4.40422C8.24666 4.55037 8.1645 4.72854 8.1645 4.93846C8.1645 5.13941 8.24666 5.31516 8.41101 5.46587C8.57537 5.61652 8.77193 5.69193 9.00006 5.69193C9.22843 5.69193 9.42475 5.61652 9.5891 5.46587C9.75346 5.31516 9.83562 5.13945 9.83562 4.93846ZM9.71236 13.3356V7.78777C9.71236 7.65069 9.64623 7.53904 9.51373 7.45213C9.38147 7.3654 9.21022 7.32198 9.00006 7.32198C8.79007 7.32198 8.61647 7.3654 8.47957 7.45213C8.34257 7.53896 8.27412 7.65069 8.27412 7.78777V13.3356C8.27412 13.4544 8.34492 13.564 8.48639 13.6644C8.62807 13.7651 8.79928 13.8151 9.00006 13.8151C9.20108 13.8151 9.36994 13.7651 9.50691 13.6644C9.64391 13.564 9.71236 13.4544 9.71236 13.3356Z" fill="white"/>
</g>
</svg>
