<svg width="12" height="12" viewBox="0 0 12 12" fill="none" xmlns="http://www.w3.org/2000/svg">
<path d="M11.4053 8.85498L10.2399 7.68964C10.029 7.47885 9.76486 7.32926 9.47562 7.25681C9.18637 7.18437 8.88288 7.19179 8.59752 7.27829C8.31216 7.36478 8.05563 7.52711 7.85529 7.74796C7.65494 7.96881 7.5183 8.2399 7.45993 8.53231C5.53826 8.17298 3.66926 6.31165 3.55293 4.64798C3.87962 4.58788 4.18028 4.42976 4.41492 4.19464C4.72388 3.88565 4.89744 3.4666 4.89744 3.02964C4.89744 2.59269 4.72388 2.17364 4.41492 1.86464L3.24992 0.699311C2.94093 0.39036 2.52188 0.216797 2.08493 0.216797C1.64797 0.216797 1.22892 0.39036 0.919925 0.699311C-2.57541 4.19464 7.90992 14.68 11.4053 11.1846C11.714 10.8756 11.8875 10.4567 11.8875 10.0198C11.8875 9.58297 11.714 9.164 11.4053 8.85498Z" fill="url(#paint0_linear_1_643)"/>
<defs>
<linearGradient id="paint0_linear_1_643" x1="4.28694" y1="8.87626" x2="7.81635" y2="5.69979" gradientUnits="userSpaceOnUse">
<stop stop-color="#FCB25F"/>
<stop offset="1" stop-color="#FDE7CE"/>
</linearGradient>
</defs>
</svg>
