<svg width="13" height="13" viewBox="0 0 13 13" fill="none" xmlns="http://www.w3.org/2000/svg">
<path d="M12.5798 5.12056L8.68268 4.57308L6.94055 1.15912C6.89297 1.06565 6.81469 0.989981 6.71799 0.943987C6.47547 0.828259 6.18077 0.924699 6.05951 1.15912L4.31738 4.57308L0.420236 5.12056C0.312792 5.1354 0.214557 5.18436 0.139346 5.25854C0.0484205 5.34888 -0.00168366 5.47041 4.32016e-05 5.59644C0.00177006 5.72247 0.0551867 5.84268 0.148556 5.93065L2.96819 8.58793L2.30204 12.3402C2.28642 12.4275 2.29641 12.5172 2.33088 12.5993C2.36536 12.6814 2.42293 12.7525 2.49708 12.8045C2.57123 12.8566 2.65898 12.8875 2.75039 12.8938C2.8418 12.9001 2.9332 12.8815 3.01424 12.8402L6.50003 11.0687L9.98582 12.8402C10.081 12.8891 10.1915 12.9055 10.2974 12.8877C10.5645 12.8431 10.7441 12.5983 10.698 12.3402L10.0319 8.58793L12.8515 5.93065C12.9283 5.85795 12.9789 5.763 12.9943 5.65914C13.0357 5.39949 12.8484 5.15914 12.5798 5.12056Z" fill="url(#paint0_linear_1_3038)"/>
<defs>
<linearGradient id="paint0_linear_1_3038" x1="6.79144" y1="19.6556" x2="14.6883" y2="16.2566" gradientUnits="userSpaceOnUse">
<stop offset="0.259087" stop-color="#FCB25F"/>
<stop offset="1" stop-color="#FDE7CE"/>
</linearGradient>
</defs>
</svg>
